<mxfile host="app.diagrams.net" modified="2024-03-24T20:39:27.582Z" agent="Mozilla/5.0 (Windows NT 10.0; Win64; x64) AppleWebKit/537.36 (KHTML, like Gecko) Chrome/122.0.0.0 Safari/537.36" etag="RF_vEnbJrtKz_ybM07OD" version="24.1.0" type="device">
  <diagram name="Page-1" id="GAck1arKeORPyFf9GrZ7">
    <mxGraphModel dx="1120" dy="468" grid="1" gridSize="10" guides="1" tooltips="1" connect="1" arrows="1" fold="1" page="1" pageScale="1" pageWidth="850" pageHeight="1100" math="0" shadow="0">
      <root>
        <mxCell id="0" />
        <mxCell id="1" parent="0" />
        <mxCell id="RposDhjG1xMWk1h1-Dal-12" style="edgeStyle=orthogonalEdgeStyle;rounded=0;orthogonalLoop=1;jettySize=auto;html=1;exitX=1;exitY=0.5;exitDx=0;exitDy=0;entryX=0;entryY=0.5;entryDx=0;entryDy=0;" edge="1" parent="1" source="RposDhjG1xMWk1h1-Dal-8" target="RposDhjG1xMWk1h1-Dal-10">
          <mxGeometry relative="1" as="geometry" />
        </mxCell>
        <mxCell id="RposDhjG1xMWk1h1-Dal-8" value="" style="ellipse;fillColor=strokeColor;html=1;" vertex="1" parent="1">
          <mxGeometry x="40" y="395" width="40" height="42.5" as="geometry" />
        </mxCell>
        <mxCell id="RposDhjG1xMWk1h1-Dal-13" style="edgeStyle=orthogonalEdgeStyle;rounded=0;orthogonalLoop=1;jettySize=auto;html=1;exitX=1;exitY=0.5;exitDx=0;exitDy=0;" edge="1" parent="1" source="RposDhjG1xMWk1h1-Dal-10" target="RposDhjG1xMWk1h1-Dal-11">
          <mxGeometry relative="1" as="geometry" />
        </mxCell>
        <mxCell id="RposDhjG1xMWk1h1-Dal-10" value="IDLE" style="rounded=1;whiteSpace=wrap;html=1;" vertex="1" parent="1">
          <mxGeometry x="200" y="400" width="70" height="37.5" as="geometry" />
        </mxCell>
        <mxCell id="RposDhjG1xMWk1h1-Dal-29" style="edgeStyle=orthogonalEdgeStyle;rounded=0;orthogonalLoop=1;jettySize=auto;html=1;exitX=1;exitY=0.5;exitDx=0;exitDy=0;entryX=0;entryY=0.5;entryDx=0;entryDy=0;" edge="1" parent="1" source="RposDhjG1xMWk1h1-Dal-11" target="RposDhjG1xMWk1h1-Dal-19">
          <mxGeometry relative="1" as="geometry" />
        </mxCell>
        <mxCell id="RposDhjG1xMWk1h1-Dal-41" style="edgeStyle=orthogonalEdgeStyle;rounded=0;orthogonalLoop=1;jettySize=auto;html=1;exitX=0.5;exitY=1;exitDx=0;exitDy=0;entryX=0;entryY=0.5;entryDx=0;entryDy=0;" edge="1" parent="1" source="RposDhjG1xMWk1h1-Dal-11" target="RposDhjG1xMWk1h1-Dal-40">
          <mxGeometry relative="1" as="geometry" />
        </mxCell>
        <mxCell id="RposDhjG1xMWk1h1-Dal-11" value="Log In&amp;nbsp;" style="rounded=1;whiteSpace=wrap;html=1;" vertex="1" parent="1">
          <mxGeometry x="350" y="402.5" width="100" height="40" as="geometry" />
        </mxCell>
        <mxCell id="RposDhjG1xMWk1h1-Dal-14" value="User access&amp;nbsp;&lt;div&gt;system&lt;/div&gt;" style="text;html=1;align=center;verticalAlign=middle;resizable=0;points=[];autosize=1;strokeColor=none;fillColor=none;" vertex="1" parent="1">
          <mxGeometry x="270" y="420" width="90" height="40" as="geometry" />
        </mxCell>
        <mxCell id="RposDhjG1xMWk1h1-Dal-32" style="edgeStyle=orthogonalEdgeStyle;rounded=0;orthogonalLoop=1;jettySize=auto;html=1;exitX=1;exitY=0.5;exitDx=0;exitDy=0;" edge="1" parent="1" source="RposDhjG1xMWk1h1-Dal-16" target="RposDhjG1xMWk1h1-Dal-20">
          <mxGeometry relative="1" as="geometry" />
        </mxCell>
        <mxCell id="RposDhjG1xMWk1h1-Dal-33" value="Saving The Entered&amp;nbsp;&lt;div&gt;Data&lt;/div&gt;" style="edgeLabel;html=1;align=center;verticalAlign=middle;resizable=0;points=[];" vertex="1" connectable="0" parent="RposDhjG1xMWk1h1-Dal-32">
          <mxGeometry x="-0.0364" y="8" relative="1" as="geometry">
            <mxPoint y="23" as="offset" />
          </mxGeometry>
        </mxCell>
        <mxCell id="RposDhjG1xMWk1h1-Dal-16" value="Enter info details" style="rounded=1;whiteSpace=wrap;html=1;" vertex="1" parent="1">
          <mxGeometry x="360" y="270" width="90" height="50" as="geometry" />
        </mxCell>
        <mxCell id="RposDhjG1xMWk1h1-Dal-17" style="edgeStyle=orthogonalEdgeStyle;rounded=0;orthogonalLoop=1;jettySize=auto;html=1;exitX=0.5;exitY=0;exitDx=0;exitDy=0;entryX=0.433;entryY=0.96;entryDx=0;entryDy=0;entryPerimeter=0;" edge="1" parent="1" source="RposDhjG1xMWk1h1-Dal-11" target="RposDhjG1xMWk1h1-Dal-16">
          <mxGeometry relative="1" as="geometry" />
        </mxCell>
        <mxCell id="RposDhjG1xMWk1h1-Dal-34" style="edgeStyle=orthogonalEdgeStyle;rounded=0;orthogonalLoop=1;jettySize=auto;html=1;exitX=1;exitY=0.5;exitDx=0;exitDy=0;entryX=0;entryY=0.5;entryDx=0;entryDy=0;" edge="1" parent="1" source="RposDhjG1xMWk1h1-Dal-19" target="RposDhjG1xMWk1h1-Dal-22">
          <mxGeometry relative="1" as="geometry" />
        </mxCell>
        <mxCell id="RposDhjG1xMWk1h1-Dal-38" style="edgeStyle=orthogonalEdgeStyle;rounded=0;orthogonalLoop=1;jettySize=auto;html=1;exitX=0.5;exitY=1;exitDx=0;exitDy=0;" edge="1" parent="1" source="RposDhjG1xMWk1h1-Dal-19" target="RposDhjG1xMWk1h1-Dal-21">
          <mxGeometry relative="1" as="geometry" />
        </mxCell>
        <mxCell id="RposDhjG1xMWk1h1-Dal-19" value="View Data" style="rounded=1;whiteSpace=wrap;html=1;" vertex="1" parent="1">
          <mxGeometry x="550" y="397.5" width="90" height="50" as="geometry" />
        </mxCell>
        <mxCell id="RposDhjG1xMWk1h1-Dal-47" style="edgeStyle=orthogonalEdgeStyle;rounded=0;orthogonalLoop=1;jettySize=auto;html=1;exitX=0.5;exitY=1;exitDx=0;exitDy=0;" edge="1" parent="1" source="RposDhjG1xMWk1h1-Dal-20" target="RposDhjG1xMWk1h1-Dal-19">
          <mxGeometry relative="1" as="geometry" />
        </mxCell>
        <mxCell id="RposDhjG1xMWk1h1-Dal-20" value="Save Data" style="rounded=1;whiteSpace=wrap;html=1;" vertex="1" parent="1">
          <mxGeometry x="560" y="270" width="90" height="50" as="geometry" />
        </mxCell>
        <mxCell id="RposDhjG1xMWk1h1-Dal-42" style="edgeStyle=orthogonalEdgeStyle;rounded=0;orthogonalLoop=1;jettySize=auto;html=1;exitX=0;exitY=0.5;exitDx=0;exitDy=0;entryX=1;entryY=0.5;entryDx=0;entryDy=0;" edge="1" parent="1" source="RposDhjG1xMWk1h1-Dal-21" target="RposDhjG1xMWk1h1-Dal-40">
          <mxGeometry relative="1" as="geometry" />
        </mxCell>
        <mxCell id="RposDhjG1xMWk1h1-Dal-21" value="Log Out" style="rounded=1;whiteSpace=wrap;html=1;" vertex="1" parent="1">
          <mxGeometry x="550" y="510" width="90" height="50" as="geometry" />
        </mxCell>
        <mxCell id="RposDhjG1xMWk1h1-Dal-43" style="edgeStyle=orthogonalEdgeStyle;rounded=0;orthogonalLoop=1;jettySize=auto;html=1;exitX=0;exitY=0.25;exitDx=0;exitDy=0;entryX=1;entryY=0.5;entryDx=0;entryDy=0;" edge="1" parent="1" source="RposDhjG1xMWk1h1-Dal-22" target="RposDhjG1xMWk1h1-Dal-20">
          <mxGeometry relative="1" as="geometry" />
        </mxCell>
        <mxCell id="RposDhjG1xMWk1h1-Dal-22" value="Edit Data" style="rounded=1;whiteSpace=wrap;html=1;" vertex="1" parent="1">
          <mxGeometry x="730" y="400" width="90" height="50" as="geometry" />
        </mxCell>
        <mxCell id="RposDhjG1xMWk1h1-Dal-28" value="Enter Child&amp;nbsp;&lt;div&gt;Information&lt;/div&gt;" style="text;html=1;align=center;verticalAlign=middle;resizable=0;points=[];autosize=1;strokeColor=none;fillColor=none;" vertex="1" parent="1">
          <mxGeometry x="390" y="330" width="90" height="40" as="geometry" />
        </mxCell>
        <mxCell id="RposDhjG1xMWk1h1-Dal-40" value="" style="ellipse;html=1;shape=endState;fillColor=strokeColor;" vertex="1" parent="1">
          <mxGeometry x="450" y="520" width="30" height="30" as="geometry" />
        </mxCell>
        <mxCell id="RposDhjG1xMWk1h1-Dal-44" value="Error Verification" style="text;html=1;align=center;verticalAlign=middle;resizable=0;points=[];autosize=1;strokeColor=none;fillColor=none;" vertex="1" parent="1">
          <mxGeometry x="390" y="460" width="110" height="30" as="geometry" />
        </mxCell>
        <mxCell id="RposDhjG1xMWk1h1-Dal-45" value="Exit System" style="text;html=1;align=center;verticalAlign=middle;resizable=0;points=[];autosize=1;strokeColor=none;fillColor=none;" vertex="1" parent="1">
          <mxGeometry x="590" y="460" width="90" height="30" as="geometry" />
        </mxCell>
        <mxCell id="RposDhjG1xMWk1h1-Dal-46" value="Save The&amp;nbsp;&lt;div&gt;Changed Data&lt;/div&gt;" style="text;html=1;align=center;verticalAlign=middle;resizable=0;points=[];autosize=1;strokeColor=none;fillColor=none;" vertex="1" parent="1">
          <mxGeometry x="680" y="313" width="100" height="40" as="geometry" />
        </mxCell>
        <mxCell id="RposDhjG1xMWk1h1-Dal-48" value="Change Data" style="text;html=1;align=center;verticalAlign=middle;resizable=0;points=[];autosize=1;strokeColor=none;fillColor=none;" vertex="1" parent="1">
          <mxGeometry x="635" y="418" width="90" height="30" as="geometry" />
        </mxCell>
        <mxCell id="RposDhjG1xMWk1h1-Dal-49" value="View Child&amp;nbsp;&lt;div&gt;Information&lt;/div&gt;" style="text;html=1;align=center;verticalAlign=middle;resizable=0;points=[];autosize=1;strokeColor=none;fillColor=none;" vertex="1" parent="1">
          <mxGeometry x="460" y="380" width="80" height="40" as="geometry" />
        </mxCell>
      </root>
    </mxGraphModel>
  </diagram>
</mxfile>
